<?xml version="1.0" standalone="no"?>
<!DOCTYPE svg PUBLIC "-//W3C//DTD SVG 20010904//EN"
 "http://www.w3.org/TR/2001/REC-SVG-20010904/DTD/svg10.dtd">
<svg version="1.0" xmlns="http://www.w3.org/2000/svg"
 width="640.000000pt" height="1280.000000pt" viewBox="0 0 640.000000 1280.000000"
 preserveAspectRatio="xMidYMid meet">
<metadata>
Created by potrace 1.15, written by Peter Selinger 2001-2017
</metadata>
<g transform="translate(0.000000,1280.000000) scale(0.100000,-0.100000)"
fill="#000000" stroke="none">
<path d="M4505 12752 c-39 -26 -150 -98 -248 -161 -108 -70 -177 -120 -177
-130 0 -9 -51 -50 -122 -98 -459 -306 -953 -526 -1462 -652 -161 -40 -390 -85
-490 -97 l-53 -6 -6 108 c-8 137 -19 175 -65 225 -127 141 -402 141 -556 -1
-68 -63 -80 -103 -74 -260 l5 -129 -106 -3 -106 -3 -3 -1096 -2 -1096 46 -7
c26 -3 76 -6 112 -6 l65 0 -7 -432 c-4 -238 -11 -658 -16 -933 -40 -2110 -37
-3347 10 -4430 53 -1224 167 -2251 346 -3115 42 -202 36 -193 191 -286 332
-200 628 -189 849 31 53 54 75 83 87 121 48 146 32 258 -123 909 -135 565
-200 868 -279 1290 -221 1183 -358 2403 -457 4070 -29 471 -22 1532 15 2488 5
114 11 210 14 213 7 7 100 -7 282 -42 476 -92 910 -240 1335 -454 235 -119
570 -322 570 -345 0 -10 471 -317 496 -323 19 -5 202 305 328 555 305 611 446
1165 446 1761 0 728 -230 1484 -683 2244 -45 76 -84 137 -87 137 -3 0 -37 -22
-75 -47z"/>
</g>
</svg>
